<svg width="83" height="23" viewBox="0 0 83 23" fill="none" xmlns="http://www.w3.org/2000/svg">
<path d="M-0.00011912 18.216V14.736L5.66388 5.496H0.215881V1.704H11.1359V5.208L5.56788 14.424H11.2559V18.216H-0.00011912ZM17.2023 18.408C16.1303 18.408 15.2583 18.216 14.5863 17.832C13.9303 17.448 13.4503 16.928 13.1463 16.272C12.8423 15.616 12.6903 14.88 12.6903 14.064V6.192H17.7543V13.368C17.7543 13.736 17.8583 14.024 18.0663 14.232C18.2903 14.424 18.5543 14.52 18.8583 14.52C19.1783 14.52 19.5063 14.424 19.8423 14.232L20.1063 17.568C19.7543 17.84 19.2983 18.048 18.7383 18.192C18.1783 18.336 17.6663 18.408 17.2023 18.408ZM15.2343 4.872C14.4983 4.872 13.8663 4.64 13.3383 4.176C12.8103 3.696 12.5463 3.112 12.5463 2.424C12.5463 1.944 12.6743 1.528 12.9303 1.176C13.1863 0.808002 13.5223 0.520002 13.9383 0.312002C14.3543 0.104002 14.7863 1.90735e-06 15.2343 1.90735e-06C15.7303 1.90735e-06 16.1783 0.112002 16.5783 0.336002C16.9943 0.560003 17.3223 0.856003 17.5623 1.224C17.8183 1.592 17.9463 1.992 17.9463 2.424C17.9463 2.904 17.8103 3.328 17.5383 3.696C17.2823 4.064 16.9463 4.352 16.5303 4.56C16.1303 4.768 15.6983 4.872 15.2343 4.872ZM21.3404 18.216V6.192H26.3324V8.808C26.7004 7.912 27.2444 7.224 27.9644 6.744C28.7004 6.264 29.5724 6.024 30.5804 6.024C32.1484 6.024 33.3644 6.568 34.2284 7.656C35.0924 8.728 35.5244 10.248 35.5244 12.216V18.216H30.4604V11.952C30.4604 10.528 29.8844 9.816 28.7324 9.816C28.0444 9.816 27.4844 10.072 27.0524 10.584C26.6204 11.08 26.4044 11.752 26.4044 12.6V18.216H21.3404ZM44.9455 22.896C44.3375 22.896 43.7695 22.856 43.2415 22.776C42.7135 22.696 42.2975 22.6 41.9935 22.488L42.3775 19.008C42.6655 19.072 42.9775 19.12 43.3135 19.152C43.6495 19.2 43.9775 19.224 44.2975 19.224C45.3695 19.224 46.1375 19 46.6015 18.552C47.0815 18.104 47.3215 17.416 47.3215 16.488V15.36C46.8735 16.24 46.3215 16.888 45.6655 17.304C45.0095 17.72 44.1855 17.928 43.1935 17.928C42.0575 17.928 41.0335 17.672 40.1215 17.16C39.2095 16.632 38.4895 15.92 37.9615 15.024C37.4495 14.112 37.1935 13.072 37.1935 11.904C37.1935 10.736 37.4495 9.712 37.9615 8.832C38.4895 7.952 39.2095 7.264 40.1215 6.768C41.0335 6.272 42.0575 6.024 43.1935 6.024C43.9935 6.024 44.7615 6.24 45.4975 6.672C46.2335 7.088 46.7935 7.768 47.1775 8.712V6.192H52.2175V15.408C52.2175 17.968 51.5855 19.856 50.3215 21.072C49.0575 22.288 47.2655 22.896 44.9455 22.896ZM44.7535 14.136C45.4415 14.136 46.0175 13.92 46.4815 13.488C46.9455 13.056 47.1775 12.536 47.1775 11.928C47.1775 11.32 46.9455 10.816 46.4815 10.416C46.0175 10.016 45.4415 9.816 44.7535 9.816C44.0175 9.816 43.4095 10.024 42.9295 10.44C42.4655 10.856 42.2335 11.368 42.2335 11.976C42.2335 12.568 42.4655 13.08 42.9295 13.512C43.4095 13.928 44.0175 14.136 44.7535 14.136ZM62.0856 15.048C62.5496 15.048 63.0376 15 63.5496 14.904C64.0776 14.808 64.6136 14.632 65.1576 14.376L65.7336 17.472C65.1416 17.776 64.4936 18.008 63.7896 18.168C63.1016 18.328 62.3096 18.408 61.4136 18.408C59.7976 18.408 58.4376 18.144 57.3336 17.616C56.2456 17.088 55.4216 16.36 54.8616 15.432C54.3016 14.504 54.0216 13.432 54.0216 12.216C54.0216 10.968 54.3176 9.88 54.9096 8.952C55.5176 8.024 56.3256 7.304 57.3336 6.792C58.3416 6.28 59.4536 6.024 60.6696 6.024C62.4776 6.024 63.8616 6.592 64.8216 7.728C65.7816 8.848 66.2616 10.448 66.2616 12.528L59.1096 13.44C59.6376 14.512 60.6296 15.048 62.0856 15.048ZM58.7256 11.232L62.4936 10.44C62.4296 9.928 62.2536 9.552 61.9656 9.312C61.6776 9.056 61.3176 8.928 60.8856 8.928C60.2456 8.928 59.7336 9.152 59.3496 9.6C58.9816 10.032 58.7736 10.576 58.7256 11.232ZM67.9341 18.216V6.192H72.9261V8.808C73.2941 7.912 73.8381 7.224 74.5581 6.744C75.2941 6.264 76.1661 6.024 77.1741 6.024C78.7421 6.024 79.9581 6.568 80.8221 7.656C81.6861 8.728 82.1181 10.248 82.1181 12.216V18.216H77.0541V11.952C77.0541 10.528 76.4781 9.816 75.3261 9.816C74.6381 9.816 74.0781 10.072 73.6461 10.584C73.2141 11.08 72.9981 11.752 72.9981 12.6V18.216H67.9341Z" fill="#F4F4F5"/>
</svg>
